<svg width="277" height="424" viewBox="0 0 277 424" fill="none" xmlns="http://www.w3.org/2000/svg">
<path d="M60.5 151C60.5 110.407 93.4071 77.5 134 77.5H144C184.593 77.5 217.5 110.407 217.5 151V189V423.5H60.5V189V151Z" fill="#A97556" stroke="#242424"/>
<mask id="mask0_2_90" style="mask-type:alpha" maskUnits="userSpaceOnUse" x="60" y="77" width="158" height="347">
<path d="M60.5 151C60.5 110.407 93.4071 77.5 134 77.5H144C184.593 77.5 217.5 110.407 217.5 151V189V423.5H60.5V189V151Z" fill="#A97556" stroke="#242424"/>
</mask>
<g mask="url(#mask0_2_90)">
<path d="M149.139 264.204C160.307 252.147 169.463 238.371 176.257 223.406C193.692 185.003 199.324 142.285 192.439 100.675L191.5 95L189.848 88.1926C185.838 71.6656 206.387 60.5763 218 73V424H60L60 303.5C91.294 305.713 121.902 293.61 143.221 270.594L149.139 264.204Z" fill="#825C49"/>
</g>
<path d="M60.5 151C60.5 110.407 93.4071 77.5 134 77.5H144C184.593 77.5 217.5 110.407 217.5 151V189V423.5H60.5V189V151Z" stroke="#242424"/>
<rect x="-0.478531" y="-0.523796" width="7.49814" height="30.0069" rx="3.74907" transform="matrix(0.998825 0.0484644 -0.0417634 0.999128 96.4871 110.023)" fill="#242424" stroke="#242424"/>
<rect width="6.49814" height="11.037" rx="3.24907" transform="matrix(0.998825 0.0484644 -0.0417634 0.999128 96.5095 110)" fill="white"/>
<rect width="6.49814" height="7.82652" rx="3.24907" transform="matrix(0.998825 0.0484644 -0.0417634 0.999128 95.625 131.162)" fill="#924321"/>
<rect x="-0.478531" y="-0.523796" width="7.49814" height="30.0069" rx="3.74907" transform="matrix(0.998825 0.0484644 -0.0417634 0.999128 140.189 110.023)" fill="#242424" stroke="#242424"/>
<rect width="6.49814" height="11.037" rx="3.24907" transform="matrix(0.998825 0.0484644 -0.0417634 0.999128 140.211 110)" fill="white"/>
<rect width="6.49814" height="7.82652" rx="3.24907" transform="matrix(0.998825 0.0484644 -0.0417634 0.999128 139.327 131.162)" fill="#924321"/>
<path d="M154 170C154 178.837 140.121 184 123 184C105.879 184 92 178.837 92 170C92 161.163 105.879 154 123 154C140.121 154 154 161.163 154 170Z" fill="#825C49"/>
<path d="M146.5 162C146.5 166.11 143.275 169.483 137.724 171.854C132.196 174.214 124.519 175.5 116 175.5C107.481 175.5 99.8035 174.214 94.276 171.854C88.7246 169.483 85.5 166.11 85.5 162C85.5 157.865 88.758 153.996 94.309 151.131C99.8345 148.279 107.503 146.5 116 146.5C124.497 146.5 132.166 148.279 137.691 151.131C143.242 153.996 146.5 157.865 146.5 162Z" fill="#E5707A" stroke="#242424"/>
<mask id="mask1_2_90" style="mask-type:alpha" maskUnits="userSpaceOnUse" x="85" y="146" width="62" height="30">
<path d="M146.5 162C146.5 166.11 143.275 169.483 137.724 171.854C132.196 174.214 124.519 175.5 116 175.5C107.481 175.5 99.8035 174.214 94.276 171.854C88.7246 169.483 85.5 166.11 85.5 162C85.5 157.865 88.758 153.996 94.309 151.131C99.8345 148.279 107.503 146.5 116 146.5C124.497 146.5 132.166 148.279 137.691 151.131C143.242 153.996 146.5 157.865 146.5 162Z" fill="#E5707A" stroke="#242424"/>
</mask>
<g mask="url(#mask1_2_90)">
<path d="M154 170C154 178.837 140.121 184 123 184C105.879 184 92 178.837 92 170C92 167.594 94.8223 166.719 98.3647 165.976C103.788 164.839 108.797 164.202 114.212 163.028C121.054 161.546 127.393 157.001 132.674 152.405C138.191 147.603 140.806 153.599 144 154.5C151.91 156.732 154 164.26 154 170Z" fill="#AF4F57"/>
</g>
<mask id="mask2_2_90" style="mask-type:alpha" maskUnits="userSpaceOnUse" x="85" y="146" width="62" height="30">
<path d="M146.5 162C146.5 166.11 143.275 169.483 137.724 171.854C132.196 174.214 124.519 175.5 116 175.5C107.481 175.5 99.8035 174.214 94.276 171.854C88.7246 169.483 85.5 166.11 85.5 162C85.5 157.865 88.758 153.996 94.309 151.131C99.8345 148.279 107.503 146.5 116 146.5C124.497 146.5 132.166 148.279 137.691 151.131C143.242 153.996 146.5 157.865 146.5 162Z" fill="#E5707A" stroke="#242424"/>
</mask>
<g mask="url(#mask2_2_90)">
<path d="M102.795 144.696C107.018 146.35 111.774 149.458 109.763 153.524C108.305 156.472 104.887 158.853 100.338 158C92.3377 156.5 89.3377 154.902 89.3377 149.6C89.3377 144.298 85.2625 141 91.3377 141C96.2264 141 95.8374 141.971 102.795 144.696Z" fill="white"/>
</g>
<path d="M146.5 162C146.5 166.11 143.275 169.483 137.724 171.854C132.196 174.214 124.519 175.5 116 175.5C107.481 175.5 99.8035 174.214 94.276 171.854C88.7246 169.483 85.5 166.11 85.5 162C85.5 157.865 88.758 153.996 94.309 151.131C99.8345 148.279 107.503 146.5 116 146.5C124.497 146.5 132.166 148.279 137.691 151.131C143.242 153.996 146.5 157.865 146.5 162Z" stroke="#242424"/>
</svg>
